<?xml version="1.0" encoding="UTF-8" standalone="no"?>
<!DOCTYPE svg PUBLIC "-//W3C//DTD SVG 1.1//EN" "http://www.w3.org/Graphics/SVG/1.1/DTD/svg11.dtd">
<!-- Created with Vectornator (http://vectornator.io/) -->
<svg height="100%" stroke-miterlimit="10" style="fill-rule:nonzero;clip-rule:evenodd;stroke-linecap:round;stroke-linejoin:round;" version="1.1" viewBox="0 0 1984.5 850.5" width="100%" xml:space="preserve" xmlns="http://www.w3.org/2000/svg" xmlns:vectornator="http://vectornator.io" xmlns:xlink="http://www.w3.org/1999/xlink">
<defs>
<linearGradient gradientTransform="matrix(0.999996 0 0 1.00004 -287.572 -460.322)" gradientUnits="userSpaceOnUse" id="LinearGradient" x1="744.531" x2="1822.06" y1="872.875" y2="872.875">
<stop offset="0.267184" stop-color="#000000"/>
<stop offset="1" stop-color="#ffa600"/>
</linearGradient>
</defs>
<g id="Layer-2" vectornator:layerName="Layer 2">
<path d="M529.675 341.583C519.275 341.583 509.644 343.331 500.8 346.864C491.956 350.397 484.262 355.38 477.706 361.802C471.15 368.224 466.069 375.734 462.425 384.334C458.781 392.935 456.956 402.362 456.956 412.585C456.956 422.808 458.781 432.204 462.425 440.805C466.069 449.405 471.142 456.915 477.675 463.337C484.208 469.759 491.892 474.742 500.737 478.275C509.582 481.808 519.212 483.588 529.612 483.588C539.479 483.588 548.74 481.939 557.362 478.65C565.984 475.361 573.354 470.452 579.487 463.962L572.956 457.306C566.956 463.306 560.335 467.631 553.112 470.275C545.889 472.919 538.195 474.244 530.018 474.244C521.085 474.244 512.788 472.698 505.144 469.587C497.499 466.477 490.842 462.134 485.175 456.555C479.508 450.977 475.121 444.428 471.987 436.961C468.854 429.494 467.269 421.386 467.269 412.585C467.269 403.785 468.854 395.645 471.987 388.178C475.121 380.711 479.508 374.193 485.175 368.615C490.842 363.037 497.499 358.694 505.144 355.583C512.788 352.472 521.085 350.895 530.018 350.895C538.196 350.895 545.889 352.202 553.112 354.802C560.335 357.402 566.956 361.691 572.956 367.646L579.487 360.958C573.354 354.469 565.984 349.617 557.362 346.395C548.74 343.173 539.498 341.583 529.675 341.583ZM669.955 341.583C659.512 341.583 649.848 343.346 640.987 346.895C632.125 350.444 624.423 355.435 617.862 361.865C611.3 368.294 606.193 375.808 602.549 384.397C598.906 392.985 597.081 402.385 597.081 412.585C597.081 422.785 598.905 432.154 602.549 440.742C606.193 449.331 611.306 456.851 617.862 463.274C624.418 469.698 632.111 474.688 640.987 478.244C649.863 481.799 659.52 483.588 669.955 483.588C680.389 483.588 690.044 481.817 698.893 478.275C707.742 474.733 715.436 469.751 721.986 463.337C728.537 456.923 733.623 449.405 737.268 440.805C740.912 432.205 742.736 422.804 742.736 412.585C742.736 402.368 740.912 392.94 737.268 384.334C733.623 375.729 728.537 368.216 721.986 361.802C715.435 355.388 707.742 350.437 698.893 346.895C690.044 343.353 680.399 341.583 669.955 341.583ZM669.955 350.895C678.845 350.895 687.099 352.446 694.705 355.521C702.311 358.595 708.938 362.925 714.58 368.521C720.223 374.117 724.608 380.643 727.736 388.084C730.864 395.525 732.424 403.677 732.424 412.554C732.424 421.429 730.839 429.597 727.705 437.055C724.572 444.512 720.19 451.024 714.549 456.618C708.908 462.212 702.277 466.545 694.674 469.618C687.071 472.691 678.845 474.244 669.955 474.244C661.066 474.244 652.796 472.716 645.174 469.65C637.553 466.583 630.915 462.226 625.268 456.618C619.621 451.01 615.243 444.482 612.112 437.024C608.981 429.565 607.424 421.412 607.424 412.554C607.424 403.695 608.978 395.529 612.112 388.084C615.245 380.639 619.648 374.119 625.299 368.521C630.95 362.923 637.59 358.597 645.205 355.521C652.821 352.444 661.066 350.895 669.955 350.895ZM1486.48 341.583C1475.02 341.583 1465.65 343.303 1458.36 346.77C1451.07 350.237 1445.66 354.774 1442.17 360.396C1438.68 366.018 1436.95 372.129 1436.95 378.709C1436.95 386.086 1438.52 392.078 1441.67 396.678C1444.83 401.278 1449 404.927 1454.2 407.616C1459.4 410.305 1465.14 412.481 1471.36 414.148C1477.58 415.814 1483.77 417.368 1489.95 418.835C1496.13 420.302 1501.81 422.099 1507.01 424.211C1512.21 426.322 1516.39 429.183 1519.55 432.805C1522.7 436.427 1524.26 441.224 1524.26 447.18C1524.26 452.247 1522.86 456.838 1520.01 460.993C1517.17 465.149 1512.8 468.455 1506.89 470.9C1500.98 473.345 1493.35 474.587 1484.01 474.587C1474.59 474.587 1465.73 472.862 1457.42 469.462C1449.11 466.062 1442.55 461.877 1437.8 456.899L1433.2 464.65C1438.23 470.162 1445.38 474.688 1454.67 478.244C1463.96 481.799 1473.78 483.588 1484.14 483.588C1495.7 483.588 1505.2 481.853 1512.64 478.431C1520.08 475.009 1525.58 470.492 1529.14 464.868C1532.7 459.245 1534.48 453.182 1534.48 446.649C1534.48 439.405 1532.89 433.504 1529.73 428.992C1526.58 424.48 1522.4 420.908 1517.2 418.242C1512 415.575 1506.32 413.399 1500.14 411.71C1493.96 410.021 1487.77 408.417 1481.55 406.929C1475.32 405.44 1469.62 403.675 1464.42 401.585C1459.22 399.495 1455.04 396.613 1451.89 392.991C1448.73 389.369 1447.14 384.534 1447.14 378.49C1447.14 373.29 1448.55 368.606 1451.33 364.427C1454.11 360.249 1458.4 356.898 1464.26 354.364C1470.13 351.831 1477.57 350.583 1486.55 350.583C1492.81 350.583 1499.32 351.524 1506.08 353.458C1512.83 355.392 1519.11 358.383 1524.89 362.427L1528.8 354.239C1523.42 350.329 1516.98 347.225 1509.42 344.958C1501.87 342.691 1494.22 341.583 1486.48 341.583ZM778.08 342.583L778.08 482.588L788.08 482.588L788.08 363.271L846.673 463.9L851.736 463.9L910.361 362.708L910.423 482.588L920.423 482.588L920.361 342.583L911.829 342.583L849.392 450.868L786.611 342.583L778.08 342.583ZM969.204 342.583L969.204 351.708L1008.42 351.708L1019.49 351.708C1034.46 351.708 1045.86 355.014 1053.7 361.615C1061.55 368.215 1065.48 377.575 1065.48 389.709C1065.48 401.71 1061.55 411.035 1053.7 417.679C1045.86 424.323 1034.46 427.648 1019.49 427.648L1008.42 427.648L1008.42 427.898L969.204 427.898L969.204 482.588L979.485 482.588L979.485 436.774L1019.49 436.774C1031.22 436.774 1041.27 434.904 1049.67 431.148C1058.07 427.393 1064.54 421.974 1069.05 414.929C1073.56 407.884 1075.8 399.487 1075.8 389.709C1075.8 379.797 1073.56 371.334 1069.05 364.333C1064.54 357.333 1058.07 351.963 1049.67 348.208C1041.27 344.452 1031.22 342.583 1019.49 342.583L969.204 342.583ZM1144.14 342.583L1079.73 482.588L1090.67 482.588L1108.55 443.243L1108.73 443.243L1109.14 442.399C1109.14 442.399 1109.81 440.848 1109.98 440.43C1110.97 438.106 1112.48 434.586 1112.48 434.586L1112.36 434.461L1112.55 434.461L1149.2 353.739L1185.92 434.586L1186.08 434.586L1188.02 438.805L1190.02 443.305L1189.89 443.305L1207.73 482.588L1218.8 482.588L1154.36 342.583L1144.14 342.583ZM1244.2 342.583L1244.2 482.588L1254.48 482.588L1254.48 342.583L1244.2 342.583ZM1303.27 342.583L1303.27 351.708L1313.55 351.708L1330.33 351.708L1353.55 351.708C1368.53 351.708 1379.92 355.014 1387.76 361.615C1395.61 368.215 1399.55 377.575 1399.55 389.709C1399.55 401.71 1395.61 411.043 1387.76 417.71C1379.92 424.377 1368.53 427.711 1353.55 427.711L1313.55 427.711L1313.55 427.679L1303.27 427.679L1303.27 482.588L1313.55 482.588L1313.55 436.711L1353.55 436.711C1358.31 436.711 1362.74 436.331 1366.95 435.711L1400.42 482.588L1412.01 482.588L1376.95 433.555C1379.32 432.839 1381.58 432.049 1383.73 431.086C1392.13 427.33 1398.6 421.92 1403.11 414.898C1407.62 407.876 1409.89 399.487 1409.89 389.709C1409.89 379.797 1407.62 371.334 1403.11 364.333C1398.6 357.333 1392.13 351.963 1383.73 348.208C1375.33 344.452 1365.28 342.583 1353.55 342.583L1303.27 342.583Z" fill="url(#LinearGradient)" fill-rule="nonzero" opacity="1" stroke="none"/>
</g>
</svg>
